<svg xmlns="http://www.w3.org/2000/svg" width="21" height="23" viewBox="0 0 21 23"><g><g><path fill="#fff" d="M21.006 5.248a.956.956 0 0 1-.956.957l-.904.113v13.819c0 1.573-1.336 2.853-2.916 2.853H4.77c-1.58 0-2.916-1.28-2.916-2.853V6.317L.95 6.206a.956.956 0 0 1-.955-.957c0-.529.427-.823.955-.823h4.329V1.001c0-.548.427-.992.955-.992h8.534c.528 0 .955.444.955.992v3.424h4.328c.529 0 .955.294.955.823zM7.188 4.425h6.624l.042-2.616H7.146zm.447 3.695a.956.956 0 0 0-.955.958v8.167a.956.956 0 1 0 1.91 0V9.078a.956.956 0 0 0-.955-.958zm5.73 0a.956.956 0 0 0-.955.958v8.167a.956.956 0 1 0 1.91 0V9.078a.956.956 0 0 0-.955-.958z"/></g></g></svg>