<svg xmlns="http://www.w3.org/2000/svg" width="21" height="19" viewBox="0 0 21 19"><g><g><path fill="#6098ff" d="M20 9c-.07-.038-.057-.057-.04-.064a.701.701 0 0 1-.039.004h-4.71l-1.087-2.984c-.075-.206-.171-.132-.386-.137a.527.527 0 0 0-.497.325l-.948 2.249-1.226-4.65a.528.528 0 0 0-.528-.397.53.53 0 0 0-.499.435l-1.467 7.75-1.04-4.183a.53.53 0 0 0-.481-.404.53.53 0 0 0-.523.347L5.999 9H1C.52 8.103-.005 7.39-.005 6.295c0-3.485 2.771-6.31 6.19-6.31 1.68 0 3.202.684 4.317 1.791a6.107 6.107 0 0 1 4.317-1.79c3.419 0 6.19 2.824 6.19 6.31 0 .972-.622 1.881-1.008 2.704zM6 10c.22 0 .178.274.632.065l.292-.793L8.13 14.13a.53.53 0 0 0 .51.405h.016a.53.53 0 0 0 .503-.435l1.482-7.829 1.027 3.894a.53.53 0 0 0 .471.396.53.53 0 0 0 .522-.323l1.028-2.441.719 1.961c.077.21.22.302.44.302L20 10c-.265.398-.785.826-1.133 1.148l-6.421 6.556c-.643.655-1.286 1.31-1.93 1.31h-.031c-.643 0-1.287-.655-1.93-1.31l-6.42-6.556C1.899 10.93 1.199 10.254 1 10z"/></g></g></svg>
