<svg xmlns="http://www.w3.org/2000/svg" width="15" height="12" viewBox="0 0 15 12"><g><g><path fill="#a8d980" d="M.276.504c.24-.327.597-.514.98-.514h12.488c.383 0 .74.187.98.514a.35.35 0 0 1-.044.46C12.623 2.829 9.014 6.107 7.953 7.13c-.142.137-.295.206-.453.206-.159 0-.311-.07-.454-.208C5.986 6.105 2.376 2.827.32.965a.35.35 0 0 1-.044-.46zm14.717 1.773v8.398c0 .736-.56 1.335-1.25 1.335H1.257c-.689 0-1.249-.599-1.249-1.335V2.277c0-.13.071-.248.181-.303a.296.296 0 0 1 .333.049c1.862 1.687 5.131 4.66 6.107 5.6.516.497 1.229.497 1.743.001.916-.882 3.827-3.533 6.108-5.601a.295.295 0 0 1 .333-.049c.11.055.18.173.18.303z"/></g></g></svg>
