<svg xmlns="http://www.w3.org/2000/svg" width="20" height="17" viewBox="0 0 20 17">
  <defs>
    <style>
      .cls-1 {
        fill: #6fb43f;
        fill-rule: evenodd;
      }
    </style>
  </defs>
  <path id="Forma_1_copy" data-name="Forma 1 copy" class="cls-1" d="M9.863,5.743l2.578,2.492L12.453,8.1A2.417,2.417,0,0,0,10,5.731ZM10,4.149A4.027,4.027,0,0,1,14.09,8.1,3.78,3.78,0,0,1,13.8,9.548l2.394,2.314A9.416,9.416,0,0,0,19,8.1,9.684,9.684,0,0,0,10,2.171a9.868,9.868,0,0,0-3.261.554L8.5,4.43A4.237,4.237,0,0,1,10,4.149ZM1.814,1.993L3.68,3.8l0.372,0.36A9.406,9.406,0,0,0,1,8.1a9.679,9.679,0,0,0,9,5.933,9.886,9.886,0,0,0,3.589-.668l0.348,0.336,2.386,2.31,1.043-1L2.857,0.984ZM6.339,6.364L7.6,7.586A2.359,2.359,0,0,0,10,10.478a2.606,2.606,0,0,0,.532-0.059l1.265,1.222a4.14,4.14,0,0,1-1.8.419A4.027,4.027,0,0,1,5.906,8.1,3.816,3.816,0,0,1,6.339,6.364Z"/>
</svg>
