<svg xmlns="http://www.w3.org/2000/svg" width="20" height="17" viewBox="0 0 20 17">
  <defs>
    <style>
      .cls-1 {
        fill: #6098ff;
        fill-rule: evenodd;
      }
    </style>
  </defs>
  <path id="Forma_1" data-name="Forma 1" class="cls-1" d="M10,5.6A2.4,2.4,0,1,0,12.456,8,2.429,2.429,0,0,0,10,5.6Zm0-3.6A9.68,9.68,0,0,0,1,8a9.68,9.68,0,0,0,9,5.994A9.675,9.675,0,0,0,19,8,9.675,9.675,0,0,0,10,2.006ZM10,12A4.047,4.047,0,0,1,5.907,8a4.094,4.094,0,0,1,8.186,0A4.047,4.047,0,0,1,10,12Z"/>
</svg>
