<svg xmlns="http://www.w3.org/2000/svg" width="21" height="21" viewBox="0 0 21 21"><g><g><path fill="#fff" d="M20.905 9.958a.878.878 0 0 1-.19.286l-2.622 2.627a.871.871 0 0 1-1.236 0 .876.876 0 0 1 0-1.239l1.13-1.132h-2.26v7.883c0 .483-.392.876-.875.876H10.48v.876a.877.877 0 0 1-1.046.858L.69 19.241a.875.875 0 0 1-.703-.858V.864c0-.017.012-.033.012-.05C0 .788-.008.764-.003.737.007.664.037.6.066.532.076.508.078.482.09.46A.866.866 0 0 1 .323.182C.33.177.333.167.34.162.358.148.382.147.402.135a.845.845 0 0 1 .37-.13C.802.002.83-.01.862-.01h13.99c.483 0 .874.392.874.875v7.884h2.262l-1.131-1.133a.876.876 0 0 1 1.236-1.238l2.623 2.626a.878.878 0 0 1 .19.955zm-13.711 2.32l-1.749-.438a.877.877 0 0 0-.423 1.7l1.749.437a.875.875 0 0 0 .423-1.7zM13.978 1.74H6.82l3.036.913c.37.111.624.453.624.84v14.014h3.498z"/></g></g></svg>