<svg xmlns="http://www.w3.org/2000/svg" width="72" height="72" viewBox="0 0 72 72">
  <defs>
    <style>
      .cls-1 {
        fill: #92b7fb;
      }

      .cls-2 {
        fill: #fff;
        fill-rule: evenodd;
      }
    </style>
  </defs>
  <path id="Rounded_Rectangle_1" data-name="Rounded Rectangle 1" class="cls-1" d="M35.994,0h0.012A35.994,35.994,0,0,1,72,35.994V36A36,36,0,0,1,36,72h0A36,36,0,0,1,0,36V35.994A35.994,35.994,0,0,1,35.994,0Z"/>
  <path class="cls-2" d="M20.545,39.082H45.309l-8.382,8.5a2.609,2.609,0,0,0,0,3.652,2.52,2.52,0,0,0,3.6,0L53.254,38.325a2.609,2.609,0,0,0,0-3.652L40.526,21.761a2.52,2.52,0,0,0-3.6,0,2.609,2.609,0,0,0,0,3.652l8.382,8.5H20.545A2.583,2.583,0,0,0,20.545,39.082Z"/>
</svg>
