<svg xmlns="http://www.w3.org/2000/svg" width="15" height="15" viewBox="0 0 15 15"><g><g><path fill="#6098ff" d="M13.625 7.878a4.61 4.61 0 0 1-4.49 1.184l-1.294 1.294a.85.85 0 0 1-.782.23l-.91-.198a.184.184 0 0 0-.218.219l.198.91a.85.85 0 0 1-1.012 1.01l-.91-.197a.183.183 0 0 0-.218.218l.198.91a.85.85 0 0 1-.23.782l-.392.393a.733.733 0 0 1-.472.213l-2.329.147a.732.732 0 0 1-.777-.777l.147-2.329a.732.732 0 0 1 .213-.471l5.571-5.571a4.612 4.612 0 1 1 7.707 2.033zm-7.504-.034c-.2-.2-.526-.2-.726 0l-3.683 3.683a.513.513 0 0 0 .726.725L6.12 8.57c.2-.2.2-.526 0-.726zm5.57-4.555a1.877 1.877 0 1 0-2.654 2.655 1.877 1.877 0 0 0 2.654-2.655z"/></g></g></svg>
