<svg xmlns="http://www.w3.org/2000/svg" width="72" height="72" viewBox="0 0 72 72">
  <defs>
    <style>
      .cls-1 {
        fill: #6098ff;
      }

      .cls-2 {
        fill: #fff;
        fill-rule: evenodd;
      }
    </style>
  </defs>
  <path id="Rounded_Rectangle_1_copy" data-name="Rounded Rectangle 1 copy" class="cls-1" d="M35.994,0h0.012A35.994,35.994,0,0,1,72,35.994V36A36,36,0,0,1,36,72h0A36,36,0,0,1,0,36V35.994A35.994,35.994,0,0,1,35.994,0Z"/>
  <path class="cls-2" d="M51.455,39.082H26.691l8.382,8.5a2.609,2.609,0,0,1,0,3.652,2.52,2.52,0,0,1-3.6,0L18.746,38.325a2.609,2.609,0,0,1,0-3.652L31.474,21.761a2.52,2.52,0,0,1,3.6,0,2.609,2.609,0,0,1,0,3.652l-8.382,8.5H51.455A2.583,2.583,0,0,1,51.455,39.082Z"/>
</svg>
