<svg xmlns="http://www.w3.org/2000/svg" width="31" height="24" viewBox="0 0 31 24"><g><g><path fill="#fff" d="M30.59 14.672l-2.87 1.251a.735.735 0 0 1-.95-.362l-1.339-2.85a.689.689 0 0 1 .12-.77.715.715 0 0 1 .774-.168l.95.36c.274-3.062-1.553-6.1-4.635-7.271-.509-.194-.77-.752-.585-1.247a.964.964 0 0 1 1.256-.548 9.259 9.259 0 0 1 5.107 4.72 8.85 8.85 0 0 1 .756 5.068l1.359.517a.727.727 0 0 1 .47.642.683.683 0 0 1-.413.658zM13.372 7.315l-2.069 2.142c-.185.193-.288.45-.288.721v4.814H7.993c-.543 0-.986-.46-.986-1.023V3.159c0-.271.103-.528.288-.722L9.365.29a.961.961 0 0 1 .697-.3h6.959c.544 0 .985.458.985 1.023v6.002H14.07a.961.961 0 0 0-.697.3zm-5.171 12.37c.486.19.737.742.562 1.233a.91.91 0 0 1-1.197.545c-3.923-1.533-6.198-5.638-5.626-9.678l-1.3-.507a.718.718 0 0 1-.451-.635.679.679 0 0 1 .393-.654l2.736-1.246a.692.692 0 0 1 .91.356l1.286 2.819a.701.701 0 0 1-.113.763.665.665 0 0 1-.739.169l-.907-.355c-.253 3.034 1.5 6.038 4.446 7.19zM15.363 9.31a.96.96 0 0 1 .697-.3h6.958c.545 0 .987.458.987 1.023v12.955c0 .563-.442 1.022-.987 1.022h-9.026c-.544 0-.986-.459-.986-1.022v-10.81c0-.272.102-.529.288-.722zm-.385 12.654h7.055V11.057h-4.986v1.122c0 .563-.443 1.022-.987 1.022h-1.082z"/></g></g></svg>